# xmcd
#
# Track frame offsets:
#	150
#	19929
#	65164
#	98307
#	134197
#	165818
#	197063
#
# Disc length: 2820 seconds
#
# Revision: 1
# Processed by: cddbd v1.5.2PL0 Copyright (c) Steve Scherf et al.
# Submitted via: audiograbber 1.83.01
#
DISCID=590b0207
DTITLE=Grateful Dead - 79-08-05 Oakland Auditorium Arena, Oakland CA
DYEAR=1900
DGENRE=
TTITLE0=Space
TTITLE1=Not Fade Away
TTITLE2=Wharf Rat
TTITLE3=Around and Around
TTITLE4=Bertha
TTITLE5=Good Lovin'
TTITLE6=Johnny B Goode
EXTD=
EXTT0=
EXTT1=
EXTT2=
EXTT3=
EXTT4=
EXTT5=
EXTT6=
PLAYORDER=
